<svg width="64" height="64" viewBox="0 0 64 64" fill="none" xmlns="http://www.w3.org/2000/svg">
<g clip-path="url(#clip0_3676_3)">
<path d="M32 58.6666C17.272 58.6666 5.33331 46.7279 5.33331 31.9999C5.33331 17.2719 17.272 5.33325 32 5.33325C46.728 5.33325 58.6666 17.2719 58.6666 31.9999C58.6666 46.7279 46.728 58.6666 32 58.6666ZM32 53.3332C37.6579 53.3332 43.0841 51.0856 47.0849 47.0849C51.0857 43.0841 53.3333 37.6579 53.3333 31.9999C53.3333 26.342 51.0857 20.9157 47.0849 16.915C43.0841 12.9142 37.6579 10.6666 32 10.6666C26.342 10.6666 20.9158 12.9142 16.915 16.915C12.9143 20.9157 10.6666 26.342 10.6666 31.9999C10.6666 37.6579 12.9143 43.0841 16.915 47.0849C20.9158 51.0856 26.342 53.3332 32 53.3332V53.3332ZM32 28.2293L39.5413 20.6853L43.3146 24.4586L35.7706 31.9999L43.3146 39.5413L39.5413 43.3146L32 35.7706L24.4586 43.3146L20.6853 39.5413L28.2293 31.9999L20.6853 24.4586L24.4586 20.6853L32 28.2293Z" fill="black"/>
</g>
<defs>
<clipPath id="clip0_3676_3">
<rect width="64" height="64" fill="white"/>
</clipPath>
</defs>
</svg>
